<?xml version="1.0" encoding="UTF-8"?><svg xmlns:svg="http://www.w3.org/2000/svg" xmlns="http://www.w3.org/2000/svg" xmlns:xlink="http://www.w3.org/1999/xlink" version="1.0" width="1481" height="32" viewBox="0 0 1481 32" ><line x1="40" y1="1" x2="200" y2="1" stroke="#000000" stroke-width="1" /><line x1="40" y1="31" x2="200" y2="31" stroke="#000000" stroke-width="1" /><line x1="40" y1="1" x2="40" y2="31" stroke="#000000" stroke-width="1" /><text font-size="18" font-family="Palatino, Georgia, Times New Roman, serif" x="120" y="17" text-anchor="middle" dominant-baseline="middle" >COBS Data ...</text><line x1="200" y1="1" x2="242.5" y2="1" stroke="#000000" stroke-width="1" /><line stroke-dasharray="1,3" x1="242.5" y1="1" x2="232.5" y2="31" stroke="#000000" stroke-width="1" /><line x1="232.5" y1="31" x2="200" y2="31" stroke="#000000" stroke-width="1" /><line x1="280" y1="1" x2="247.5" y2="1" stroke="#000000" stroke-width="1" /><line stroke-dasharray="1,3" x1="247.5" y1="1" x2="237.5" y2="31" stroke="#000000" stroke-width="1" /><line x1="237.5" y1="31" x2="280" y2="31" stroke="#000000" stroke-width="1" /><rect x="280" y="1" height="30" width="80" fill="#df8700" /><line x1="280" y1="1" x2="360" y2="1" stroke="#000000" stroke-width="1" /><line x1="280" y1="31" x2="360" y2="31" stroke="#000000" stroke-width="1" /><line x1="360" y1="1" x2="360" y2="31" stroke="#000000" stroke-width="1" /><line x1="280" y1="1" x2="280" y2="31" stroke="#000000" stroke-width="1" /><text font-size="18" font-family="Palatino, Georgia, Times New Roman, serif" x="320" y="17" text-anchor="middle" dominant-baseline="middle" >link(1)</text><rect x="360" y="1" height="30" width="80" fill="#df8700" /><line x1="360" y1="1" x2="440" y2="1" stroke="#000000" stroke-width="1" /><line x1="360" y1="31" x2="440" y2="31" stroke="#000000" stroke-width="1" /><line x1="440" y1="1" x2="440" y2="31" stroke="#000000" stroke-width="1" /><line x1="360" y1="1" x2="360" y2="31" stroke="#000000" stroke-width="1" /><text font-size="18" font-family="Palatino, Georgia, Times New Roman, serif" x="400" y="17" text-anchor="middle" dominant-baseline="middle" >link(3)</text><line x1="440" y1="1" x2="520" y2="1" stroke="#000000" stroke-width="1" /><line x1="440" y1="31" x2="520" y2="31" stroke="#000000" stroke-width="1" /><line x1="520" y1="1" x2="520" y2="31" stroke="#000000" stroke-width="1" /><line x1="440" y1="1" x2="440" y2="31" stroke="#000000" stroke-width="1" /><text font-size="18" font-family="Palatino, Georgia, Times New Roman, serif" x="480" y="17" text-anchor="middle" dominant-baseline="middle" >0xde</text><line x1="520" y1="1" x2="600" y2="1" stroke="#000000" stroke-width="1" /><line x1="520" y1="31" x2="600" y2="31" stroke="#000000" stroke-width="1" /><line x1="600" y1="1" x2="600" y2="31" stroke="#000000" stroke-width="1" /><line x1="520" y1="1" x2="520" y2="31" stroke="#000000" stroke-width="1" /><text font-size="18" font-family="Palatino, Georgia, Times New Roman, serif" x="560" y="17" text-anchor="middle" dominant-baseline="middle" >0xad</text><rect x="600" y="1" height="30" width="80" fill="#df8700" /><line x1="600" y1="1" x2="680" y2="1" stroke="#000000" stroke-width="1" /><line x1="600" y1="31" x2="680" y2="31" stroke="#000000" stroke-width="1" /><line x1="680" y1="1" x2="680" y2="31" stroke="#000000" stroke-width="1" /><line x1="600" y1="1" x2="600" y2="31" stroke="#000000" stroke-width="1" /><text font-size="18" font-family="Palatino, Georgia, Times New Roman, serif" x="640" y="17" text-anchor="middle" dominant-baseline="middle" >link(3)</text><rect x="680" y="1" height="30" width="80" fill="#a0fafa" /><line x1="680" y1="1" x2="760" y2="1" stroke="#000000" stroke-width="1" /><line x1="680" y1="31" x2="760" y2="31" stroke="#000000" stroke-width="1" /><line x1="760" y1="1" x2="760" y2="31" stroke="#000000" stroke-width="1" /><line x1="680" y1="1" x2="680" y2="31" stroke="#000000" stroke-width="1" /><text font-size="18" font-family="Palatino, Georgia, Times New Roman, serif" x="720" y="17" text-anchor="middle" dominant-baseline="middle" >0x01</text><rect x="760" y="1" height="30" width="80" fill="#a0fafa" /><line x1="760" y1="1" x2="840" y2="1" stroke="#000000" stroke-width="1" /><line x1="760" y1="31" x2="840" y2="31" stroke="#000000" stroke-width="1" /><line x1="840" y1="1" x2="840" y2="31" stroke="#000000" stroke-width="1" /><line x1="760" y1="1" x2="760" y2="31" stroke="#000000" stroke-width="1" /><text font-size="18" font-family="Palatino, Georgia, Times New Roman, serif" x="800" y="17" text-anchor="middle" dominant-baseline="middle" >0x04</text><rect x="840" y="1" height="30" width="80" fill="#df8700" /><line x1="840" y1="1" x2="920" y2="1" stroke="#000000" stroke-width="1" /><line x1="840" y1="31" x2="920" y2="31" stroke="#000000" stroke-width="1" /><line x1="920" y1="1" x2="920" y2="31" stroke="#000000" stroke-width="1" /><line x1="840" y1="1" x2="840" y2="31" stroke="#000000" stroke-width="1" /><text font-size="18" font-family="Palatino, Georgia, Times New Roman, serif" x="880" y="17" text-anchor="middle" dominant-baseline="middle" >link(3)</text><line x1="920" y1="1" x2="1000" y2="1" stroke="#000000" stroke-width="1" /><line x1="920" y1="31" x2="1000" y2="31" stroke="#000000" stroke-width="1" /><line x1="1000" y1="1" x2="1000" y2="31" stroke="#000000" stroke-width="1" /><line x1="920" y1="1" x2="920" y2="31" stroke="#000000" stroke-width="1" /><text font-size="18" font-family="Palatino, Georgia, Times New Roman, serif" x="960" y="17" text-anchor="middle" dominant-baseline="middle" >0xbe</text><line x1="1000" y1="1" x2="1080" y2="1" stroke="#000000" stroke-width="1" /><line x1="1000" y1="31" x2="1080" y2="31" stroke="#000000" stroke-width="1" /><line x1="1080" y1="1" x2="1080" y2="31" stroke="#000000" stroke-width="1" /><line x1="1000" y1="1" x2="1000" y2="31" stroke="#000000" stroke-width="1" /><text font-size="18" font-family="Palatino, Georgia, Times New Roman, serif" x="1040" y="17" text-anchor="middle" dominant-baseline="middle" >0xef</text><rect x="1080" y="1" height="30" width="80" fill="#a0ffa0" /><line x1="1080" y1="1" x2="1160" y2="1" stroke="#000000" stroke-width="1" /><line x1="1080" y1="31" x2="1160" y2="31" stroke="#000000" stroke-width="1" /><line x1="1160" y1="1" x2="1160" y2="31" stroke="#000000" stroke-width="1" /><line x1="1080" y1="1" x2="1080" y2="31" stroke="#000000" stroke-width="1" /><text font-size="18" font-family="Palatino, Georgia, Times New Roman, serif" x="1120" y="17" text-anchor="middle" dominant-baseline="middle" >link(42)</text><line x1="1160" y1="1" x2="1202.5" y2="1" stroke="#000000" stroke-width="1" /><line stroke-dasharray="1,3" x1="1202.5" y1="1" x2="1192.5" y2="31" stroke="#000000" stroke-width="1" /><line x1="1192.5" y1="31" x2="1160" y2="31" stroke="#000000" stroke-width="1" /><line x1="1240" y1="1" x2="1207.5" y2="1" stroke="#000000" stroke-width="1" /><line stroke-dasharray="1,3" x1="1207.5" y1="1" x2="1197.5" y2="31" stroke="#000000" stroke-width="1" /><line x1="1197.5" y1="31" x2="1240" y2="31" stroke="#000000" stroke-width="1" /><line x1="1240" y1="1" x2="1400" y2="1" stroke="#000000" stroke-width="1" /><line x1="1240" y1="31" x2="1400" y2="31" stroke="#000000" stroke-width="1" /><line x1="1400" y1="1" x2="1400" y2="31" stroke="#000000" stroke-width="1" /><text font-size="18" font-family="Palatino, Georgia, Times New Roman, serif" x="1320" y="17" text-anchor="middle" dominant-baseline="middle" >... COBS Data</text></svg>